<?xml version="1.0" encoding="UTF-8" standalone="no"?>
<!DOCTYPE svg PUBLIC "-//W3C//DTD SVG 1.1//EN" "http://www.w3.org/Graphics/SVG/1.1/DTD/svg11.dtd">
<svg width="100%" height="100%" viewBox="0 0 880 300" version="1.1" xmlns="http://www.w3.org/2000/svg" xmlns:xlink="http://www.w3.org/1999/xlink" xml:space="preserve" xmlns:serif="http://www.serif.com/" style="fill-rule:evenodd;clip-rule:evenodd;stroke-linejoin:round;stroke-miterlimit:2;">
    <g transform="matrix(1,0,0,1,-212,-241)">
        <g transform="matrix(1,0,0,1,-662,-377)">
            <g>
                <g transform="matrix(2.14286,0,0,1,-911,9.5)">
                    <path d="M973,650.5C973,627.304 964.225,608.5 953.4,608.5L852.6,608.5C841.775,608.5 833,627.304 833,650.5L833,866.5C833,889.696 841.775,908.5 852.6,908.5L953.4,908.5C964.225,908.5 973,889.696 973,866.5L973,650.5Z" style="fill:rgb(23,26,35);"/>
                </g>
                <g transform="matrix(2.14286,0,0,1,-911,9.5)">
                    <path d="M953.201,908.5L852.799,908.5L903,800.926L953.201,908.5Z" style="fill:rgb(80,94,131);"/>
                </g>
                <g transform="matrix(2.14286,0,0,1,-911,9.5)">
                    <path d="M973,866.074L922.799,758.5L973,650.926L973,866.074Z" style="fill:rgb(80,94,131);"/>
                </g>
                <g transform="matrix(2.14286,0,0,1,-911,9.5)">
                    <path d="M953.201,608.5L833,866.074L833,650.5C833,627.304 841.775,608.5 852.6,608.5L953.201,608.5Z" style="fill:rgb(28,45,102);"/>
                </g>
            </g>
            <g transform="matrix(1.20864,0,0,1.20864,193.667,59.7393)">
                <g transform="matrix(0.961549,0,0,0.961549,58.1472,274.458)">
                    <circle cx="654" cy="324" r="74" style="fill:rgb(227,234,244);"/>
                </g>
                <g transform="matrix(0.868199,0,0,0.868199,90.5471,77.2352)">
                    <g transform="matrix(1,0,0,1,176,323)">
                        <circle cx="511" cy="263" r="65" style="fill:rgb(23,26,35);"/>
                    </g>
                    <g transform="matrix(1.16451,0,0,1.14325,-77.2541,346.419)">
                        <path d="M647.272,160.121C639.331,168.042 634.417,178.993 634.417,191.083C634.417,215.23 654.02,234.833 678.167,234.833C688.209,234.833 697.466,231.442 704.824,225.709C697.989,245.109 679.479,259 657.75,259C630.154,259 607.75,236.596 607.75,209C607.75,185 624.696,164.927 647.272,160.121Z" style="fill:rgb(207,172,3);"/>
                    </g>
                </g>
            </g>
            <g transform="matrix(1.4,0,0,1.4,-60,198.6)">
                <circle cx="840" cy="341" r="10" style="fill:rgb(227,234,244);"/>
            </g>
        </g>
        <g transform="matrix(6.31232,0,0,6.31232,-2972.25,-2031.49)">
            <text x="564.626px" y="391.068px" style="font-family:'Flamenco-Regular', 'Flamenco';font-size:24px;fill:white;">Y<tspan x="581.33px 600.818px 619.394px 637.874px " y="391.068px 391.068px 391.068px 391.068px ">AKEI</tspan></text>
        </g>
    </g>
</svg>
